<?xml version="1.0" encoding="UTF-8" standalone="no"?><!-- Generator: Gravit.io --><svg xmlns="http://www.w3.org/2000/svg" xmlns:xlink="http://www.w3.org/1999/xlink" style="isolation:isolate" viewBox="0 0 412 276" width="412pt" height="276pt"><defs><clipPath id="_clipPath_nK3PABhioK4SBRMWX7yuaQXYw70oevPd"><rect width="412" height="276"/></clipPath></defs><g clip-path="url(#_clipPath_nK3PABhioK4SBRMWX7yuaQXYw70oevPd)"><rect x="20" y="20" width="20" height="20" transform="matrix(1,0,0,1,0,0)" fill="rgb(0,0,0)"/><rect x="42" y="20" width="20" height="20" transform="matrix(1,0,0,1,0,0)" fill="rgb(0,0,0)"/><rect x="64" y="20" width="20" height="20" transform="matrix(1,0,0,1,0,0)" fill="rgb(0,0,0)"/><rect x="86" y="20" width="20" height="20" transform="matrix(1,0,0,1,0,0)" fill="rgb(0,0,0)"/><rect x="20" y="64" width="20" height="20" transform="matrix(1,0,0,1,0,0)" fill="rgb(0,0,0)"/><rect x="20" y="86" width="20" height="20" transform="matrix(1,0,0,1,0,0)" fill="rgb(0,0,0)"/><rect x="42" y="64" width="20" height="20" transform="matrix(1,0,0,1,0,0)" fill="rgb(0,0,0)"/><rect x="64" y="64" width="20" height="20" transform="matrix(1,0,0,1,0,0)" fill="rgb(0,0,0)"/><rect x="86" y="64" width="20" height="20" transform="matrix(1,0,0,1,0,0)" fill="rgb(0,0,0)"/><rect x="108" y="20" width="20" height="20" transform="matrix(1,0,0,1,0,0)" fill="rgb(0,0,0)"/><rect x="284" y="20" width="20" height="20" transform="matrix(1,0,0,1,0,0)" fill="rgb(0,0,0)"/><rect x="306" y="20" width="20" height="20" transform="matrix(1,0,0,1,0,0)" fill="rgb(0,0,0)"/><rect x="328" y="20" width="20" height="20" transform="matrix(1,0,0,1,0,0)" fill="rgb(0,0,0)"/><rect x="350" y="20" width="20" height="20" transform="matrix(1,0,0,1,0,0)" fill="rgb(0,0,0)"/><rect x="372" y="20" width="20" height="20" transform="matrix(1,0,0,1,0,0)" fill="rgb(0,0,0)"/><rect x="284" y="64" width="20" height="20" transform="matrix(1,0,0,1,0,0)" fill="rgb(0,0,0)"/><rect x="284" y="42" width="20" height="20" transform="matrix(1,0,0,1,0,0)" fill="rgb(0,0,0)"/><rect x="372" y="86" width="20" height="20" transform="matrix(1,0,0,1,0,0)" fill="rgb(0,0,0)"/><rect x="306" y="64" width="20" height="20" transform="matrix(1,0,0,1,0,0)" fill="rgb(0,0,0)"/><rect x="328" y="64" width="20" height="20" transform="matrix(1,0,0,1,0,0)" fill="rgb(0,0,0)"/><rect x="350" y="64" width="20" height="20" transform="matrix(1,0,0,1,0,0)" fill="rgb(0,0,0)"/><rect x="372" y="64" width="20" height="20" transform="matrix(1,0,0,1,0,0)" fill="rgb(0,0,0)"/><rect x="284" y="108" width="20" height="20" transform="matrix(1,0,0,1,0,0)" fill="rgb(0,0,0)"/><rect x="306" y="108" width="20" height="20" transform="matrix(1,0,0,1,0,0)" fill="rgb(0,0,0)"/><rect x="328" y="108" width="20" height="20" transform="matrix(1,0,0,1,0,0)" fill="rgb(0,0,0)"/><rect x="350" y="108" width="20" height="20" transform="matrix(1,0,0,1,0,0)" fill="rgb(0,0,0)"/><rect x="372" y="108" width="20" height="20" transform="matrix(1,0,0,1,0,0)" fill="rgb(0,0,0)"/><rect x="108" y="42" width="20" height="20" transform="matrix(1,0,0,1,0,0)" fill="rgb(0,0,0)"/><rect x="108" y="64" width="20" height="20" transform="matrix(1,0,0,1,0,0)" fill="rgb(0,0,0)"/><rect x="108" y="86" width="20" height="20" transform="matrix(1,0,0,1,0,0)" fill="rgb(0,0,0)"/><rect x="108" y="108" width="20" height="20" transform="matrix(1,0,0,1,0,0)" fill="rgb(0,0,0)"/><rect x="108" y="192" width="20" height="20" transform="matrix(1,0,0,1,0,0)" fill="rgb(255,153,0)"/><rect x="152" y="20" width="20" height="20" transform="matrix(1,0,0,1,0,0)" fill="rgb(0,0,0)"/><rect x="152" y="42" width="20" height="20" transform="matrix(1,0,0,1,0,0)" fill="rgb(0,0,0)"/><rect x="152" y="64" width="20" height="20" transform="matrix(1,0,0,1,0,0)" fill="rgb(0,0,0)"/><rect x="152" y="86" width="20" height="20" transform="matrix(1,0,0,1,0,0)" fill="rgb(0,0,0)"/><rect x="196" y="20" width="20" height="20" transform="matrix(1,0,0,1,0,0)" fill="rgb(0,0,0)"/><rect x="196" y="42" width="20" height="20" transform="matrix(1,0,0,1,0,0)" fill="rgb(0,0,0)"/><rect x="196" y="64" width="20" height="20" transform="matrix(1,0,0,1,0,0)" fill="rgb(0,0,0)"/><rect x="196" y="86" width="20" height="20" transform="matrix(1,0,0,1,0,0)" fill="rgb(0,0,0)"/><rect x="240" y="20" width="20" height="20" transform="matrix(1,0,0,1,0,0)" fill="rgb(0,0,0)"/><rect x="240" y="42" width="20" height="20" transform="matrix(1,0,0,1,0,0)" fill="rgb(0,0,0)"/><rect x="240" y="64" width="20" height="20" transform="matrix(1,0,0,1,0,0)" fill="rgb(0,0,0)"/><rect x="240" y="86" width="20" height="20" transform="matrix(1,0,0,1,0,0)" fill="rgb(0,0,0)"/><rect x="152" y="108" width="20" height="20" transform="matrix(1,0,0,1,0,0)" fill="rgb(0,0,0)"/><rect x="20" y="108" width="20" height="20" transform="matrix(1,0,0,1,0,0)" fill="rgb(0,0,0)"/><rect x="42" y="148" width="20" height="20" transform="matrix(1,0,0,1,0,0)" fill="rgb(255,153,0)"/><rect x="64" y="170" width="20" height="20" transform="matrix(1,0,0,1,0,0)" fill="rgb(255,153,0)"/><rect x="86" y="192" width="20" height="20" transform="matrix(1,0,0,1,0,0)" fill="rgb(255,153,0)"/><rect x="306" y="192" width="20" height="20" transform="matrix(1,0,0,1,0,0)" fill="rgb(255,153,0)"/><rect x="284" y="192" width="20" height="20" transform="matrix(1,0,0,1,0,0)" fill="rgb(255,153,0)"/><rect x="42" y="108" width="20" height="20" transform="matrix(1,0,0,1,0,0)" fill="rgb(0,0,0)"/><rect x="64" y="108" width="20" height="20" transform="matrix(1,0,0,1,0,0)" fill="rgb(0,0,0)"/><rect x="86" y="108" width="20" height="20" transform="matrix(1,0,0,1,0,0)" fill="rgb(0,0,0)"/><rect x="174" y="214" width="20" height="20" transform="matrix(1,0,0,1,0,0)" fill="rgb(255,153,0)"/><rect x="130" y="214" width="20" height="20" transform="matrix(1,0,0,1,0,0)" fill="rgb(255,153,0)"/><rect x="152" y="214" width="20" height="20" transform="matrix(1,0,0,1,0,0)" fill="rgb(255,153,0)"/><rect x="240" y="214" width="20" height="20" transform="matrix(1,0,0,1,0,0)" fill="rgb(255,153,0)"/><rect x="262" y="214" width="20" height="20" transform="matrix(1,0,0,1,0,0)" fill="rgb(255,153,0)"/><rect x="196" y="214" width="20" height="20" transform="matrix(1,0,0,1,0,0)" fill="rgb(255,153,0)"/><rect x="218" y="214" width="20" height="20" transform="matrix(1,0,0,1,0,0)" fill="rgb(255,153,0)"/><rect x="218" y="236" width="20" height="20" transform="matrix(1,0,0,1,0,0)" fill="rgb(255,153,0)"/><rect x="174" y="236" width="20" height="20" transform="matrix(1,0,0,1,0,0)" fill="rgb(255,153,0)"/><rect x="196" y="236" width="20" height="20" transform="matrix(1,0,0,1,0,0)" fill="rgb(255,153,0)"/><rect x="306" y="148" width="20" height="20" transform="matrix(1,0,0,1,0,0)" fill="rgb(255,153,0)"/><rect x="328" y="148" width="20" height="20" transform="matrix(1,0,0,1,0,0)" fill="rgb(255,153,0)"/><rect x="350" y="148" width="20" height="20" transform="matrix(1,0,0,1,0,0)" fill="rgb(255,153,0)"/><rect x="350" y="170" width="20" height="20" transform="matrix(1,0,0,1,0,0)" fill="rgb(255,153,0)"/><rect x="328" y="170" width="20" height="20" transform="matrix(1,0,0,1,0,0)" fill="rgb(255,153,0)"/><rect x="350" y="192" width="20" height="20" transform="matrix(1,0,0,1,0,0)" fill="rgb(255,153,0)"/><rect x="174" y="108" width="20" height="20" transform="matrix(1,0,0,1,0,0)" fill="rgb(0,0,0)"/><rect x="196" y="108" width="20" height="20" transform="matrix(1,0,0,1,0,0)" fill="rgb(0,0,0)"/><rect x="218" y="108" width="20" height="20" transform="matrix(1,0,0,1,0,0)" fill="rgb(0,0,0)"/><rect x="240" y="108" width="20" height="20" transform="matrix(1,0,0,1,0,0)" fill="rgb(0,0,0)"/></g></svg>