<svg version="1.1" width="50.000000" height="50.000000" viewBox="0.000000 0.000000 50.000000 50.000000" xmlns="http://www.w3.org/2000/svg" xmlns:xlink="http://www.w3.org/1999/xlink" id="Layer_1" overflow="hidden"><path d=" M 48.500000 48.500000 L 1.500000 48.500000 L 1.500000 1.500000 L 48.500000 1.500000 Z M 3.500000 46.500000 L 46.500000 46.500000 L 46.500000 3.500000 L 3.500000 3.500000 Z" fill="#693CC5"/><path d=" M 33.500000 33.500000 L 16.500000 33.500000 L 16.500000 16.500000 L 33.500000 16.500000 Z M 18.500000 31.500000 L 31.500000 31.500000 L 31.500000 18.500000 L 18.500000 18.500000 Z" fill="#693CC5"/><path d=" M 47.000000 30.700001 C 42.433060 28.185955 37.467075 26.477629 32.320000 25.650002 L 32.639999 23.650000 C 38.026276 24.516266 43.222576 26.305878 48.000000 28.940001 Z" fill="#693CC5"/><path d=" M 3.000000 30.700001 L 2.000000 28.940001 C 6.766391 26.317167 11.948740 24.534466 17.320000 23.670000 L 17.639999 25.670000 C 12.507934 26.495817 7.555901 28.197233 2.999999 30.700001 Z" fill="#693CC5"/><path d=" M 72.000000 554.000000 L -79.000000 554.000000 L -84.449997 621.500000 L -223.000000 621.500000 L -230.000000 -4.000000 L 72.000000 -4.000000 L 72.000000 554.000000 Z" stroke="#A166FF" stroke-width="3.000000" stroke-miterlimit="10.000000" fill="none"/></svg>