<svg version="1.1" width="50.000000" height="50.000000" viewBox="0.000000 0.000000 50.000000 50.000000" xmlns="http://www.w3.org/2000/svg" xmlns:xlink="http://www.w3.org/1999/xlink" id="Layer_1" overflow="hidden"><path d=" M 39.060001 39.119999 L 31.469999 39.119999 C 31.081730 39.122780 30.726950 38.900555 30.559999 38.549999 L 19.920000 15.690000 L 15.620000 15.690000 C 15.067715 15.690000 14.620000 15.242285 14.620000 14.690000 L 14.620000 8.120000 C 14.620000 7.567715 15.067715 7.120000 15.620000 7.120000 L 25.110001 7.120000 C 25.493320 7.126746 25.839041 7.352047 26.000000 7.700000 L 36.619999 30.559999 L 39.060001 30.559999 C 39.612286 30.559999 40.060001 31.007715 40.060001 31.559999 L 40.060001 38.119999 C 40.060001 38.672283 39.612286 39.119999 39.060001 39.119999 Z M 32.060001 37.119999 L 38.060001 37.119999 L 38.060001 32.560001 L 36.000000 32.560001 C 35.609428 32.560966 35.254040 32.334457 35.090000 31.980001 L 24.480000 9.120000 L 16.629999 9.120000 L 16.629999 13.690000 L 20.559999 13.690000 C 20.950571 13.689034 21.305960 13.915545 21.469999 14.270000 Z" fill="#D86613"/><path d=" M 18.430000 39.119999 L 10.310000 39.119999 C 9.757718 39.118439 9.311270 38.669460 9.312831 38.117176 C 9.313249 37.969353 9.346435 37.823460 9.410000 37.689999 L 17.900000 19.910000 C 18.065403 19.562716 18.415340 19.341089 18.799999 19.340000 L 18.799999 19.340000 C 19.182394 19.339235 19.531746 19.556608 19.699999 19.900000 L 23.770000 28.299999 C 23.899563 28.572027 23.899563 28.887972 23.770000 29.160000 L 19.330000 38.549999 C 19.164597 38.897282 18.814659 39.118912 18.430000 39.119999 Z M 11.900000 37.119999 L 17.790001 37.119999 L 21.790001 28.740000 L 18.790001 22.650000 Z" fill="#D86613"/><path d=" M 25.000000 48.500000 C 12.021308 48.500000 1.500000 37.978691 1.500000 25.000000 C 1.500000 12.021308 12.021308 1.500000 25.000000 1.500000 C 37.978691 1.500000 48.500000 12.021308 48.500000 25.000000 C 48.488972 37.974121 37.974121 48.488972 25.000000 48.500000 Z M 25.000000 3.500000 C 13.125878 3.500000 3.500000 13.125878 3.500000 25.000000 C 3.500000 36.874123 13.125878 46.500000 25.000000 46.500000 C 36.874123 46.500000 46.500000 36.874123 46.500000 25.000000 C 46.483475 13.132730 36.867271 3.516524 25.000000 3.500000 Z" fill="#D86613"/><path d=" M -105.000000 -1616.500000 L 212.000000 -1616.500000 L 223.339996 -10.500000 L 60.209999 -10.500000 L 60.270000 62.000000 L -118.000000 62.000000 L -105.000000 -1616.500000 Z" stroke="#FF9900" stroke-width="3.000000" stroke-miterlimit="10.000000" fill="none"/></svg>