<svg version="1.1" width="50.000000" height="50.000000" viewBox="0.000000 0.000000 50.000000 50.000000" xmlns="http://www.w3.org/2000/svg" xmlns:xlink="http://www.w3.org/1999/xlink" id="Layer_1" overflow="hidden"><path d=" M 24.670000 48.500000 C 18.280001 48.500000 8.170000 47.049999 8.040000 43.160000 L 3.510000 9.550000 C 3.402304 8.997715 3.762715 8.462696 4.315000 8.355000 C 4.867285 8.247305 5.402305 8.607716 5.510000 9.160001 C 6.010000 11.090000 13.560000 13.790000 24.709999 13.790000 C 35.860001 13.790000 43.400002 11.090000 43.900002 9.160000 C 44.007698 8.607715 44.542717 8.247304 45.095001 8.355000 C 45.647285 8.462695 46.007698 8.997715 45.900002 9.549999 L 41.290001 43.160000 C 41.290001 44.480000 40.070000 45.610001 37.779999 46.520000 C 36.763672 46.907120 35.721027 47.221249 34.660000 47.459999 C 31.377829 48.169552 28.027943 48.518291 24.670000 48.500000 Z M 5.900000 12.270000 L 10.000000 43.000000 C 10.000000 43.000000 10.000000 43.090000 10.000000 43.130001 C 10.000000 44.310001 15.690000 46.549999 24.629999 46.549999 C 27.837040 46.567337 31.036264 46.231991 34.169998 45.549999 C 35.133133 45.320419 36.078827 45.023010 37.000000 44.660000 C 38.849998 43.930000 39.259998 43.270000 39.259998 43.080002 C 39.255444 43.036789 39.255444 42.993214 39.259998 42.950001 L 43.389999 12.270000 C 39.529999 14.570000 31.750000 15.790000 24.620001 15.790000 C 17.490000 15.790000 9.750000 14.570000 5.900000 12.270000 Z" fill="#3F8624"/><path d=" M 24.670000 15.790000 C 15.200000 15.790000 4.570000 13.640000 3.540000 9.670000 C 3.535369 9.626790 3.535369 9.583210 3.540000 9.540000 L 3.540000 9.130000 C 3.535444 9.086786 3.535444 9.043214 3.540000 9.000000 C 3.540000 4.580000 14.720000 1.500000 24.760000 1.500000 C 34.799999 1.500000 45.889999 4.580000 45.889999 9.000000 C 45.889999 9.000000 45.889999 9.080000 45.889999 9.130000 L 45.830002 9.540000 C 45.834789 9.583201 45.834789 9.626799 45.830002 9.670000 C 44.759998 13.640000 34.130001 15.790000 24.670000 15.790000 Z M 5.480000 9.210000 C 6.100000 11.140000 13.620000 13.790000 24.670000 13.790000 C 35.720001 13.790000 43.230000 11.140000 43.849998 9.210000 L 43.849998 8.940000 C 43.740002 7.000000 35.860001 3.500000 24.670000 3.500000 C 13.480000 3.500000 5.590000 7.000000 5.450000 8.940000 Z" fill="#3F8624"/><path d=" M 45.930000 29.620001 C 41.169998 29.620001 30.750000 24.910000 24.230000 21.709999 L 25.110001 19.910000 C 34.110001 24.340000 44.709999 28.430000 46.520000 27.660000 C 46.380001 27.370001 45.709999 26.469999 42.520000 24.740000 L 42.360001 24.639999 L 43.360001 22.900000 L 43.509998 22.990000 C 46.720001 24.760000 48.250000 26.120001 48.509998 27.400000 C 48.613590 27.941093 48.466515 28.499989 48.109997 28.920000 C 47.518280 29.456793 46.723610 29.711962 45.929996 29.620001 Z" fill="#3F8624"/><path d=" M 24.670000 23.000000 C 23.471542 23.000000 22.500000 22.028458 22.500000 20.830000 C 22.500000 19.631542 23.471542 18.660000 24.670000 18.660000 C 25.868458 18.660000 26.840000 19.631542 26.840000 20.830000 C 26.834526 22.026182 25.866182 22.994526 24.670000 23.000000 Z M 24.670000 20.660000 C 24.576275 20.654476 24.495817 20.725979 24.490294 20.819706 C 24.490091 20.823133 24.489994 20.826567 24.490000 20.830000 C 24.490000 21.020000 24.840000 21.020000 24.840000 20.830000 C 24.851048 20.736763 24.784422 20.652225 24.691185 20.641176 C 24.684155 20.640343 24.677078 20.639950 24.670000 20.639999 Z" fill="#3F8624"/><rect x="-83.000000" y="-151.000000" width="304.000000" height="439.000000" stroke="#6CAE3E" stroke-width="3.000000" stroke-miterlimit="10.000000" fill="none"/></svg>